<svg width="58" height="12" viewBox="0 0 58 12" fill="none" xmlns="http://www.w3.org/2000/svg">
<g filter="url(#filter0_d_1_100)">
<path d="M8.30287 5.5101C8.30287 5.77898 8.30287 6.04558 8.30287 6.30991C8.30287 6.57423 8.2892 6.84083 8.26186 7.10971C8.21173 7.67937 8.08868 8.21941 7.89272 8.72983C7.69675 9.23569 7.43015 9.68002 7.09291 10.0628C6.76023 10.4456 6.35463 10.7487 5.87611 10.972C5.3976 11.1953 4.84844 11.307 4.22865 11.307C3.98712 11.307 3.73419 11.2865 3.46986 11.2455C3.2101 11.2044 2.95033 11.1429 2.69057 11.0609C2.43536 10.9789 2.18926 10.8786 1.95229 10.7601C1.71986 10.6371 1.51251 10.4958 1.33022 10.3363L1.75404 7.5062C2.02292 7.76596 2.32143 7.97787 2.64955 8.14194C2.97768 8.30144 3.33542 8.3812 3.72279 8.3812C3.97344 8.3812 4.18536 8.34474 4.35854 8.27182C4.53171 8.1989 4.67527 8.09864 4.7892 7.97104C4.90313 7.84343 4.992 7.69532 5.0558 7.5267C5.12416 7.35353 5.17201 7.17123 5.19936 6.97983C5.23126 6.78386 5.24949 6.58334 5.25404 6.37827C5.26316 6.17319 5.26772 5.97039 5.26772 5.76987C5.26772 5.04526 5.23126 4.32521 5.15834 3.60971C5.08542 2.88966 5.02162 2.16961 4.96693 1.44955L8.09779 1.24448C8.23451 2.66635 8.30287 4.08823 8.30287 5.5101ZM17.2443 10.555L13.8537 10.9925L13.4435 9.4476H11.8849L11.5431 10.9925L8.05678 10.6507L10.7775 1.54526L14.5783 1.35385L17.2443 10.555ZM13.1974 7.3558L12.6779 4.9769L12.172 7.3558H13.1974ZM23.9845 1.53159L23.6017 4.41635C23.4695 4.37989 23.3374 4.35483 23.2052 4.34116C23.0731 4.32748 22.9409 4.32065 22.8087 4.32065C22.4715 4.32065 22.1502 4.36622 21.8449 4.45737C21.5395 4.54396 21.2684 4.6784 21.0314 4.86069C20.799 5.04298 20.6121 5.27084 20.4708 5.54428C20.3341 5.81772 20.2658 6.13901 20.2658 6.50815C20.2658 6.74513 20.3022 6.95021 20.3751 7.12338C20.4526 7.29656 20.5597 7.44011 20.6964 7.55405C20.8331 7.66798 20.9949 7.75229 21.1818 7.80698C21.3686 7.86166 21.5737 7.88901 21.797 7.88901C21.9656 7.88901 22.1411 7.87078 22.3234 7.83432C22.5057 7.79786 22.6857 7.75001 22.8634 7.69077C23.0412 7.63152 23.2143 7.56316 23.3829 7.48569C23.5516 7.40821 23.7065 7.32846 23.8478 7.24643L23.5744 10.4593C23.3966 10.5505 23.2029 10.6325 22.9933 10.7054C22.7882 10.7738 22.5763 10.8353 22.3576 10.89C22.1388 10.9401 21.9201 10.9789 21.7013 11.0062C21.4826 11.0335 21.2729 11.0472 21.0724 11.0472C20.4936 11.0472 19.9536 10.9401 19.4523 10.7259C18.951 10.5117 18.5158 10.2178 18.1466 9.84409C17.7775 9.47039 17.4858 9.03061 17.2716 8.52475C17.062 8.01433 16.9572 7.46518 16.9572 6.87729C16.9572 6.09799 17.0688 5.36427 17.2921 4.67612C17.5154 3.98341 17.8436 3.37729 18.2765 2.85776C18.7094 2.33823 19.2449 1.92807 19.8829 1.62729C20.5255 1.32651 21.2638 1.17612 22.0978 1.17612C22.4122 1.17612 22.7335 1.20118 23.0617 1.25131C23.3943 1.30144 23.702 1.39487 23.9845 1.53159ZM33.0831 1.35385L29.7882 5.90659L32.5636 10.7464L29.3917 11.307L27.3136 8.35385L27.2042 11.4437L24.3605 11.5531L24.5792 1.08041L27.7648 1.25815L27.5187 4.34799L29.6378 1.08041L33.0831 1.35385ZM40.9787 4.56674C40.9787 5.0088 40.9126 5.40073 40.7804 5.74252C40.6482 6.08432 40.466 6.38282 40.2335 6.63803C40.0057 6.89324 39.7368 7.10971 39.4269 7.28745C39.117 7.46518 38.7843 7.61101 38.4288 7.72495C38.0779 7.83432 37.7134 7.91635 37.3351 7.97104C36.9568 8.02117 36.5854 8.04851 36.2208 8.05307V11.2386H33.0353C33.0353 10.195 33.0376 9.15593 33.0421 8.12143C33.0467 7.08692 33.0535 6.0433 33.0626 4.99057C33.0718 4.43458 33.074 3.87859 33.0695 3.3226C33.0649 2.76661 33.0763 2.20606 33.1037 1.64096C33.687 1.46778 34.2703 1.3379 34.8537 1.25131C35.437 1.16472 36.0385 1.12143 36.6583 1.12143C37.0093 1.12143 37.3602 1.15105 37.7111 1.2103C38.062 1.26498 38.3969 1.35385 38.716 1.4769C39.0395 1.59995 39.338 1.75489 39.6115 1.94174C39.8895 2.12403 40.1287 2.34278 40.3292 2.59799C40.5298 2.8532 40.687 3.14487 40.8009 3.47299C40.9194 3.79656 40.9787 4.16114 40.9787 4.56674ZM37.9435 4.79916C37.9435 4.50294 37.8524 4.2728 37.6701 4.10873C37.4923 3.94011 37.2599 3.8558 36.9728 3.8558C36.8771 3.8558 36.7768 3.86492 36.672 3.88315C36.5718 3.89682 36.476 3.91505 36.3849 3.93784L36.3029 5.93393C36.3667 5.94304 36.4282 5.9476 36.4874 5.9476C36.5467 5.9476 36.6082 5.9476 36.672 5.9476C36.8361 5.9476 36.9933 5.92026 37.1437 5.86557C37.2986 5.81088 37.4354 5.73341 37.5538 5.63315C37.6723 5.52833 37.7658 5.40756 37.8341 5.27084C37.907 5.12957 37.9435 4.97234 37.9435 4.79916ZM49.8038 6.31674C49.8038 6.73146 49.756 7.1325 49.6603 7.51987C49.5646 7.90268 49.4256 8.26271 49.2433 8.59995C49.0656 8.93718 48.8468 9.24708 48.5871 9.52963C48.3318 9.80763 48.0425 10.0469 47.7189 10.2474C47.3999 10.4479 47.0512 10.6052 46.673 10.7191C46.2947 10.8285 45.8937 10.8831 45.4699 10.8831C45.0597 10.8831 44.6678 10.8307 44.2941 10.7259C43.9249 10.6211 43.5786 10.4753 43.255 10.2884C42.9315 10.097 42.6375 9.86915 42.3732 9.60483C42.1134 9.33595 41.8901 9.03972 41.7033 8.71616C41.521 8.38803 41.3774 8.03712 41.2726 7.66342C41.1723 7.28972 41.1222 6.90008 41.1222 6.49448C41.1222 6.09799 41.1701 5.71062 41.2658 5.33237C41.3615 4.94955 41.4982 4.58953 41.6759 4.25229C41.8582 3.91505 42.077 3.60515 42.3322 3.3226C42.5874 3.04005 42.8722 2.79623 43.1867 2.59116C43.5057 2.38608 43.8497 2.22657 44.2189 2.11264C44.588 1.99871 44.9777 1.94174 45.3878 1.94174C46.0486 1.94174 46.6502 2.04428 47.1925 2.24936C47.7394 2.45444 48.2042 2.74838 48.5871 3.1312C48.9744 3.50945 49.2729 3.96974 49.4826 4.51205C49.6968 5.04981 49.8038 5.65138 49.8038 6.31674ZM46.7687 6.49448C46.7687 6.29851 46.7391 6.10939 46.6798 5.92709C46.6251 5.74024 46.5431 5.57618 46.4337 5.43491C46.3244 5.28907 46.1876 5.17286 46.0236 5.08627C45.8641 4.99513 45.6795 4.94955 45.4699 4.94955C45.2557 4.94955 45.0643 4.98829 44.8956 5.06577C44.727 5.14324 44.5812 5.25034 44.4581 5.38705C44.3397 5.51922 44.2485 5.67644 44.1847 5.85873C44.1209 6.03647 44.089 6.2256 44.089 6.42612C44.089 6.61752 44.1163 6.80893 44.171 7.00034C44.2257 7.19174 44.3078 7.36492 44.4171 7.51987C44.5265 7.67481 44.6609 7.80014 44.8204 7.89584C44.9845 7.99155 45.1736 8.0394 45.3878 8.0394C45.602 8.0394 45.7934 7.99838 45.9621 7.91635C46.1352 7.82976 46.2811 7.71583 46.3996 7.57455C46.518 7.42872 46.6092 7.26238 46.673 7.07553C46.7368 6.88868 46.7687 6.695 46.7687 6.49448ZM57.4122 1.36752L57.3439 4.26596L55.3068 4.34799L54.7872 10.8285L51.9025 10.9789L51.9162 4.49838L49.879 4.60776L49.9611 1.3812L57.4122 1.36752Z" fill="url(#paint0_linear_1_100)"/>
</g>
<defs>
<filter id="filter0_d_1_100" x="0.330215" y="0.0804138" width="57.082" height="11.4727" filterUnits="userSpaceOnUse" color-interpolation-filters="sRGB">
<feFlood flood-opacity="0" result="BackgroundImageFix"/>
<feColorMatrix in="SourceAlpha" type="matrix" values="0 0 0 0 0 0 0 0 0 0 0 0 0 0 0 0 0 0 127 0" result="hardAlpha"/>
<feOffset dx="-1" dy="-1"/>
<feComposite in2="hardAlpha" operator="out"/>
<feColorMatrix type="matrix" values="0 0 0 0 0 0 0 0 0 0 0 0 0 0 0 0 0 0 0.25 0"/>
<feBlend mode="normal" in2="BackgroundImageFix" result="effect1_dropShadow_1_100"/>
<feBlend mode="normal" in="SourceGraphic" in2="effect1_dropShadow_1_100" result="shape"/>
</filter>
<linearGradient id="paint0_linear_1_100" x1="29.4328" y1="1.14291" x2="29.4328" y2="15.1429" gradientUnits="userSpaceOnUse">
<stop stop-color="#FFD64B"/>
<stop offset="1" stop-color="#C68600"/>
</linearGradient>
</defs>
</svg>
